<?xml version="1.0" encoding="UTF-8"?>
<svg version="1.1" height="64" width="64" xmlns="http://www.w3.org/2000/svg">
 <path d="m45.001 40.761h-1.2812v-2.5586h1.2812c.7695 0 1.2812.5117 1.2812 1.2812-.0039.7656-.5156 1.2773-1.2812 1.2773zm2.5586 3.8398c0-.7695-.5117-1.2812-1.2812-1.2812h-2.5586v2.5586h2.5586c.7695 0 1.2812-.5117 1.2812-1.2773zm-21.758-6.4023v2.5586h1.2812c.7695 0 1.2812-.5117 1.2812-1.2812s-.5117-1.2812-1.2812-1.2812zm16.637-20.477h11.52v12.801l-25.598-.0039c-.7695 0-1.2812.5117-1.2812 1.2812s.5117 1.2812 1.2812 1.2812h25.602v17.922h-6.3984c-.7695 0-1.2812.5117-1.2812 1.2812s.5117 1.2812 1.2812 1.2812h6.3984v5.1211c0 1.4062-1.1523 2.5586-2.5586 2.5586l-38.402-.0039c-1.4062 0-2.5586-1.1523-2.5586-2.5586v-5.1211h25.602c.7695 0 1.2812-.5117 1.2812-1.2812s-.5117-1.2812-1.2812-1.2812h-25.605v-17.918h6.3984c.7695 0 1.2812-.5117 1.2812-1.2812s-.5117-1.2812-1.2812-1.2812h-6.3984v-25.598c0-1.4062 1.1523-2.5586 2.5586-2.5586h25.602v11.52c0 2.1758 1.6641 3.8398 3.8398 3.8398zm-25.598 23.039v-2.5586h3.8398c.7695 0 1.2812-.5117 1.2812-1.2812 0-.7695-.5117-1.2812-1.2812-1.2812h-5.1211c-.7695 0-1.2812.5117-1.2812 1.2812v10.238c0 .7695.5117 1.2812 1.2812 1.2812h5.1211c.7695 0 1.2812-.5117 1.2812-1.2812s-.5117-1.2812-1.2812-1.2812h-3.8398v-2.5586h2.5586c.7695 0 1.2812-.5117 1.2812-1.2812s-.5117-1.2812-1.2812-1.2812zm5.1211-7.6797h1.2812c.7695 0 1.2812-.5117 1.2812-1.2812s-.5117-1.2812-1.2812-1.2812h-1.2812c-.7695 0-1.2812.5117-1.2812 1.2812s.5117 1.2812 1.2812 1.2812zm19.199 14.078c0 .7695.5117 1.2812 1.2812 1.2812h3.8398c2.1758 0 3.8398-1.6641 3.8398-3.8398 0-1.4062-.7695-2.5586-1.793-3.1992.3828-.6406.5117-1.2812.5117-1.9219 0-2.1758-1.6641-3.8398-3.8398-3.8398h-2.5586c-.7695 0-1.2812.5117-1.2812 1.2812zm-1.2812 5.1211c0 .7695.5117 1.2812 1.2812 1.2812h1.2812c.7695 0 1.2812-.5117 1.2812-1.2812s-.5117-1.2812-1.2812-1.2812h-1.2812c-.7695 0-1.2812.5117-1.2812 1.2812zm-7.6797-7.6797c0 2.1758 1.6641 3.8398 3.8398 3.8398 2.1758 0 3.8398-1.6641 3.8398-3.8398v-7.6797c0-.7695-.5117-1.2812-1.2812-1.2812-.7695 0-1.2812.5117-1.2812 1.2812v7.6797c0 .7695-.5117 1.2812-1.2812 1.2812-.7695 0-1.2812-.5117-1.2812-1.2812v-7.6797c0-.7695-.5117-1.2812-1.2812-1.2812-.7695 0-1.2812.5117-1.2812 1.2812zm-5.1211-8.9609h-2.5586c-.7695 0-1.2812.5117-1.2812 1.2812v10.238c0 .7695.5117 1.2812 1.2812 1.2812.7695 0 1.2812-.5117 1.2812-1.2812v-3.8398h1.2812c2.1758 0 3.8398-1.6641 3.8398-3.8398-.0039-2.1758-1.668-3.8398-3.8438-3.8398zm15.359-20.48h11.52l-12.797-12.801v11.52c0 .7695.5117 1.2812 1.2773 1.2812z" fill="#682079"/>
</svg>
